<svg width="96" height="96" viewBox="0 0 96 96" fill="none" xmlns="http://www.w3.org/2000/svg">
<rect width="96" height="96" fill="#333333"/>
<path d="M38.1124 93.8075C38.1124 92.7697 38.0749 90.0237 38.0534 86.3793C25.9023 89.0181 23.3386 80.5226 23.3386 80.5226C21.3514 75.4758 18.4873 74.1323 18.4873 74.1323C14.5209 71.4238 18.7876 71.4775 18.7876 71.4775C23.1723 71.7859 25.4786 75.98 25.4786 75.98C29.3752 82.6546 35.7042 80.7264 38.1929 79.6082C38.5898 76.7871 39.7188 74.8617 40.9658 73.7702C31.2659 72.6654 21.0671 68.9192 21.0671 52.1804C21.0671 47.4097 22.77 43.5133 25.5644 40.4589C25.1139 39.3541 23.6148 34.9132 25.9935 28.8983C25.9935 28.8983 29.6595 27.7237 38.0051 33.3739C41.4888 32.4059 45.2271 31.9232 48.9414 31.9044C52.653 31.9232 56.3887 32.4059 59.8777 33.3739C68.218 27.7237 71.8786 28.8983 71.8786 28.8983C74.2627 34.9132 72.7635 39.3541 72.3157 40.4589C75.1155 43.5133 76.805 47.4097 76.805 52.1804C76.805 68.9621 66.5901 72.6547 56.8607 73.7354C58.4268 75.0843 59.824 77.7498 59.824 81.8259C59.824 87.6638 59.7704 92.3755 59.7704 93.8075C59.7704 94.7961 60.3536 95.9208 61.8681 95.9869H35.8855C37.5025 95.9808 38.1124 94.8213 38.1124 93.8075Z" fill="white"/>
</svg>
