<svg width="96" height="96" viewBox="0 0 96 96" fill="none" xmlns="http://www.w3.org/2000/svg">
<rect width="96" height="96" fill="#333333"/>
<path d="M47.9999 28C44.9321 27.9999 41.9053 28.7055 39.1538 30.0623C36.4023 31.419 33.9998 33.3906 32.1322 35.8244C30.2646 38.2583 28.9819 41.0891 28.3834 44.098C27.7848 47.1069 27.8865 50.2132 28.6805 53.1764C29.4745 56.1397 30.9396 58.8807 32.9624 61.1871C34.9852 63.4936 37.5115 65.3039 40.3459 66.4778C43.1802 67.6517 46.2466 68.1579 49.3079 67.9571C52.3691 67.7564 55.3432 66.854 57.9999 65.32C58.2389 65.195 58.4502 65.0229 58.6209 64.8141C58.7917 64.6053 58.9185 64.3641 58.9937 64.1051C59.0688 63.846 59.0908 63.5744 59.0583 63.3067C59.0257 63.0389 58.9394 62.7805 58.8044 62.5469C58.6694 62.3134 58.4886 62.1096 58.2728 61.9478C58.057 61.7859 57.8107 61.6694 57.5487 61.6053C57.2867 61.5411 57.0144 61.5306 56.7483 61.5743C56.4821 61.6181 56.2275 61.7153 55.9999 61.86C52.9498 63.621 49.4038 64.3264 45.9119 63.8668C42.4201 63.4072 39.1774 61.8082 36.6868 59.3179C34.1963 56.8277 32.597 53.5852 32.137 50.0933C31.677 46.6015 32.3819 43.0555 34.1426 40.0051C35.9033 36.9548 38.6212 34.5706 41.8749 33.2224C45.1286 31.8741 48.7363 31.6371 52.1384 32.5481C55.5405 33.4591 58.547 35.4672 60.6916 38.2609C62.8362 41.0547 63.9991 44.478 63.9999 48V49.5C63.9999 50.4283 63.6312 51.3185 62.9748 51.9749C62.3184 52.6313 61.4282 53 60.4999 53C59.5716 53 58.6814 52.6313 58.025 51.9749C57.3687 51.3185 56.9999 50.4283 56.9999 49.5V41C56.9999 40.4696 56.7892 39.9609 56.4141 39.5858C56.039 39.2107 55.5303 39 54.9999 39C54.5348 38.9897 54.0807 39.1418 53.7156 39.4301C53.3506 39.7185 53.0975 40.1251 52.9999 40.58C51.5297 39.5632 49.7874 39.0126 47.9999 39C46.4942 38.982 45.0081 39.342 43.6776 40.0472C42.3472 40.7523 41.2149 41.78 40.3845 43.0361C39.5541 44.2922 39.0522 45.7366 38.9246 47.237C38.7971 48.7374 39.048 50.2457 39.6544 51.624C40.2609 53.0023 41.2034 54.2063 42.3958 55.126C43.5881 56.0456 44.9921 56.6513 46.4792 56.8877C47.9663 57.1241 49.489 56.9837 50.9077 56.4792C52.3265 55.9747 53.5959 55.1222 54.5999 54C55.5502 55.2306 56.8603 56.1345 58.3482 56.586C59.836 57.0375 61.4276 57.0142 62.9015 56.5192C64.3754 56.0242 65.6585 55.0822 66.5722 53.8242C67.486 52.5662 67.985 51.0548 67.9999 49.5V48C67.9999 45.3736 67.4826 42.7728 66.4775 40.3463C65.4724 37.9198 63.9992 35.715 62.142 33.8579C60.2849 32.0007 58.0801 30.5275 55.6536 29.5224C53.2271 28.5173 50.6263 28 47.9999 28ZM47.9999 53C47.011 53 46.0443 52.7068 45.2221 52.1573C44.3998 51.6079 43.7589 50.827 43.3805 49.9134C43.0021 48.9998 42.9031 47.9945 43.096 47.0245C43.2889 46.0546 43.7651 45.1637 44.4644 44.4645C45.1636 43.7652 46.0545 43.289 47.0245 43.0961C47.9944 42.9031 48.9997 43.0022 49.9133 43.3806C50.827 43.759 51.6078 44.3999 52.1573 45.2221C52.7067 46.0444 52.9999 47.0111 52.9999 48C52.9999 49.3261 52.4731 50.5979 51.5354 51.5355C50.5978 52.4732 49.326 53 47.9999 53Z" fill="white"/>
</svg>
