<svg width="96" height="96" viewBox="0 0 96 96" fill="none" xmlns="http://www.w3.org/2000/svg">
<rect width="96" height="96" fill="#333333"/>
<path d="M74.6497 70.65C71.4997 70.575 68.4247 70.575 65.2747 70.65C64.5997 70.65 64.4497 70.5 64.4497 69.825C64.4497 64.275 64.4497 58.65 64.4497 53.1C64.4497 51.825 64.3747 50.55 63.9997 49.35C62.8747 45.45 58.3747 44.025 55.1497 46.65C53.4247 48 52.7497 49.875 52.7497 52.125C52.7497 57.375 52.7497 62.625 52.7497 67.875C52.7497 68.55 52.6747 69.225 52.7497 69.975C52.8247 70.575 52.5247 70.725 51.9997 70.65C48.7747 70.65 45.6247 70.65 42.3997 70.65C41.7997 70.65 41.6497 70.5 41.6497 69.9C41.7247 65.175 41.7247 60.45 41.7247 55.65C41.7247 49.8 41.7247 43.95 41.6497 38.175C41.6497 37.5 41.7997 37.35 42.3997 37.35C45.6247 37.35 48.7747 37.35 51.9997 37.35C52.5997 37.35 52.7497 37.5 52.7497 38.1C52.7497 39.3 52.7497 40.5 52.7497 41.925C52.9747 41.7 53.0497 41.625 53.1247 41.55C56.0497 37.275 60.1747 36.075 65.0497 36.825C70.6747 37.725 74.2747 41.625 75.1747 47.625C75.3997 49.05 75.4747 50.475 75.4747 51.9C75.4747 57.9 75.4747 63.825 75.4747 69.825C75.4747 70.425 75.3247 70.65 74.6497 70.65Z" fill="white"/>
<path d="M35.6505 54C35.6505 59.25 35.6505 64.5 35.6505 69.75C35.6505 70.425 35.5005 70.65 34.8255 70.65C31.6755 70.575 28.5255 70.65 25.3755 70.65C24.7755 70.65 24.6255 70.5 24.6255 69.9C24.6255 59.325 24.6255 48.675 24.6255 38.1C24.6255 37.575 24.7755 37.35 25.3755 37.35C28.6005 37.35 31.8255 37.35 35.0505 37.35C35.7255 37.35 35.8005 37.575 35.8005 38.175C35.6505 43.425 35.6505 48.675 35.6505 54Z" fill="white"/>
<path d="M36.1751 28.65C35.4251 31.65 32.3501 33.375 28.8251 32.775C25.0751 32.175 22.9751 28.5 24.3251 24.9C25.2251 22.65 27.4001 21.3 30.1751 21.375C34.3751 21.3 37.1501 24.675 36.1751 28.65Z" fill="white"/>
</svg>
